<svg id="Layer_1" data-name="Layer 1" xmlns="http://www.w3.org/2000/svg" viewBox="0 0 1073 245.79"><defs><style>.cls-1{fill:none}.cls-2{clip-path:url(#clip-path)}.cls-3{fill:#373a3a}</style><clipPath id="clip-path"><path class="cls-1" d="M0 0h1073v245.79H0z"/></clipPath></defs><title>grey</title><g class="cls-2"><path class="cls-3" d="M129.16 96.56a20.06 20.06 0 1 1 20.06 20.06 20.06 20.06 0 0 1-20.06-20.06m46.4 51.44a15 15 0 1 1 15 15 15 15 0 0 1-15-15M228.23 8.78c0 4.85-5.62 8.78-12.54 8.78s-12.54-3.93-12.54-8.78S208.77 0 215.69 0s12.54 3.93 12.54 8.78M30.1 102.83c0 5.54-6.74 10-15 10s-15-4.49-15-10 6.74-10 15-10 15 4.49 15 10m62.7 82.76c0 4.16-6.18 7.52-13.79 7.52s-13.79-3.37-13.79-7.52 6.18-7.52 13.79-7.52 13.79 3.37 13.79 7.52M165.53 237c0 4.85-6.18 8.78-13.79 8.78s-13.79-3.93-13.79-8.78 6.18-8.78 13.79-8.78 13.79 3.93 13.79 8.78"/><path class="cls-3" transform="rotate(-1.22 151.78 169.29)" d="M150.48 110.34h2.51v117.9h-2.51z"/><path class="cls-3" transform="matrix(.55 -.83 .83 .55 -68.69 157.53)" d="M67.65 141.7h90.43v2.51H67.65z"/><path class="cls-3" transform="rotate(-3.13 73.313 98.52)" d="M16.22 97.19h114.29v2.51H16.22z"/><path class="cls-3" transform="rotate(-21.25 140.442 63.953)" d="M139.2 39.73h2.51v48.44h-2.51z"/><path class="cls-3" transform="rotate(-50.47 188.719 48.286)" d="M142.41 47.03h92.64v2.51h-92.64z"/><path class="cls-3" transform="rotate(-24.22 210.095 79.644)" d="M162.62 78.38h94.86v2.51h-94.86z"/><path class="cls-3" transform="rotate(-39.29 173.05 125.398)" d="M171.8 107.58h2.51v35.65h-2.51z"/><path class="cls-3" d="M143 33.86a11.29 11.29 0 1 1-11.29-11.29A11.29 11.29 0 0 1 143 33.86m132.88 21.32c0 5.54-5.61 10-12.54 10s-12.54-4.49-12.54-10 5.61-10 12.54-10 12.54 4.49 12.54 10M233 160.78l27.27-79.08h9.48l27.35 79.07h-9.93l-7-21.12h-30.26l-7 21.12zm20-30.61h24l-12-35.56zm51.07 16.16l8-4.41q4.54 11.2 13.08 11.19 9.18 0 9.18-8.93 0-5-9.3-8.27-2.16-.83-3.3-1.29t-3.21-1.46a23.06 23.06 0 0 1-3.24-1.82 30.14 30.14 0 0 1-2.69-2.21 11 11 0 0 1-2.31-2.81 17.73 17.73 0 0 1-1.39-3.42 14.63 14.63 0 0 1-.6-4.25 15 15 0 0 1 4.58-11.28q4.58-4.44 11.93-4.44 10.33 0 16.52 8.71l-6.4 5.51q-5.2-5.62-10.45-5.62a6.71 6.71 0 0 0-5 2 7.16 7.16 0 0 0-1.94 5.26 5.4 5.4 0 0 0 1.44 3.67 12.16 12.16 0 0 0 3.79 2.78q2.35 1.16 5.17 2.29t5.67 2.54a36.1 36.1 0 0 1 5.19 3.12 12.82 12.82 0 0 1 3.78 4.38 12.69 12.69 0 0 1 1.44 6.1q0 8.44-5.05 13.23t-13.83 4.8a20.75 20.75 0 0 1-13.1-4.22 24.77 24.77 0 0 1-8-11.11m52.1-.04l8.05-4.41q4.54 11.2 13.07 11.19 9.18 0 9.18-8.93 0-5-9.3-8.27-2.16-.83-3.3-1.29t-3.21-1.46a23.06 23.06 0 0 1-3.24-1.82 30.14 30.14 0 0 1-2.69-2.21 11 11 0 0 1-2.31-2.81 17.73 17.73 0 0 1-1.39-3.42 14.63 14.63 0 0 1-.6-4.25 15 15 0 0 1 4.61-11.28q4.58-4.44 11.93-4.44 10.33 0 16.52 8.71l-6.4 5.51q-5.2-5.62-10.45-5.62a6.71 6.71 0 0 0-5 2 7.16 7.16 0 0 0-1.94 5.26 5.4 5.4 0 0 0 1.44 3.67 12.16 12.16 0 0 0 3.79 2.78q2.35 1.16 5.17 2.29t5.67 2.54a36.1 36.1 0 0 1 5.19 3.12 12.82 12.82 0 0 1 3.78 4.38 12.69 12.69 0 0 1 1.44 6.1q0 8.44-5.05 13.23t-13.83 4.8a20.75 20.75 0 0 1-13.1-4.22 24.77 24.77 0 0 1-8-11.11m52.5-14.05q0-12.35 6.62-20.79 6.78-8.6 19.14-8.6 12.07 0 18.86 7.94 6.84 7.67 6.84 19.08v4.41h-41.76Q418.81 143 423 148a14 14 0 0 0 11.41 5.07 16.22 16.22 0 0 0 9.59-2.62 19.38 19.38 0 0 0 6.18-8.25l8.38 3.64q-4 8.38-9.65 12.08t-14.5 3.69q-12.35 0-19.14-8.44-6.62-8.6-6.62-20.9m10.26-6.56h31.26a19.63 19.63 0 0 0-5.43-10.45 14.45 14.45 0 0 0-10.34-3.78 14.16 14.16 0 0 0-10.17 3.75 19.37 19.37 0 0 0-5.32 10.48m52.46 20.62l8.05-4.41q4.54 11.2 13.07 11.19 9.18 0 9.18-8.93 0-5-9.3-8.27-2.15-.83-3.3-1.29t-3.21-1.46a23.06 23.06 0 0 1-3.24-1.82 30.14 30.14 0 0 1-2.69-2.21 11 11 0 0 1-2.31-2.81 17.73 17.73 0 0 1-1.39-3.42 14.63 14.63 0 0 1-.6-4.25 15 15 0 0 1 4.58-11.28q4.58-4.44 11.93-4.44 10.33 0 16.52 8.71l-6.4 5.51q-5.2-5.62-10.45-5.62a6.71 6.71 0 0 0-5 2 7.16 7.16 0 0 0-1.94 5.26 5.41 5.41 0 0 0 1.44 3.67 12.17 12.17 0 0 0 3.79 2.78q2.35 1.16 5.17 2.29T501 130a36.1 36.1 0 0 1 5.19 3.12 12.84 12.84 0 0 1 3.78 4.38 12.69 12.69 0 0 1 1.44 6.1q0 8.44-5.05 13.23t-13.83 4.8a20.75 20.75 0 0 1-13.1-4.22 24.77 24.77 0 0 1-8-11.11m52 .03l8.05-4.41q4.54 11.2 13.08 11.19 9.18 0 9.18-8.93 0-5-9.3-8.27-2.16-.83-3.3-1.29c-.76-.31-1.83-.8-3.21-1.46a23 23 0 0 1-3.24-1.82 30.14 30.14 0 0 1-2.69-2.21 11 11 0 0 1-2.31-2.81 17.67 17.67 0 0 1-1.39-3.42 14.59 14.59 0 0 1-.6-4.25 15 15 0 0 1 4.58-11.28q4.58-4.44 11.93-4.44 10.33 0 16.52 8.71l-6.4 5.51q-5.2-5.62-10.45-5.62a6.71 6.71 0 0 0-5 2 7.16 7.16 0 0 0-1.94 5.26 5.4 5.4 0 0 0 1.44 3.67 12.16 12.16 0 0 0 3.79 2.78q2.35 1.16 5.17 2.29T553 130a36.11 36.11 0 0 1 5.19 3.12 12.83 12.83 0 0 1 3.78 4.38 12.69 12.69 0 0 1 1.44 6.1q0 8.44-5.05 13.23t-13.83 4.8a20.75 20.75 0 0 1-13.1-4.22 24.77 24.77 0 0 1-8-11.11m56.77 14.48v-56.9h9.26v10.48q5.86-11.41 17.79-11.41a14.6 14.6 0 0 1 15 11.86q6.29-11.86 18.55-11.86 7.56 0 11.7 4.66t4.14 13.1v40.09h-9.26v-38q0-11.2-9.17-11.19-6.58 0-10.86 7.06t-4.28 18.8v23.38h-9.26v-38q0-11.2-9.17-11.19-6.58 0-10.89 7.06t-4.31 18.8v23.38zm93.08-28.46q0-12.35 6.62-20.79 6.78-8.6 19.13-8.6 12.08 0 18.86 7.94 6.84 7.67 6.84 19.08v4.41H683q.44 8.6 4.63 13.67a14 14 0 0 0 11.37 5.08 16.22 16.22 0 0 0 9.6-2.62 19.38 19.38 0 0 0 6.18-8.25l8.38 3.64q-4 8.38-9.65 12.08t-14.51 3.7q-12.35 0-19.13-8.44-6.62-8.6-6.62-20.9m10.26-6.56h31.29a19.63 19.63 0 0 0-5.43-10.45 14.45 14.45 0 0 0-10.37-3.78 14.16 14.16 0 0 0-10.17 3.75 19.37 19.37 0 0 0-5.32 10.48m57.21 35.02v-56.9H750v10.48q6.52-11.41 18.9-11.41 7.74 0 12.15 4.66t4.41 13.1v40.09h-9.26v-37.63q0-11.63-9.89-11.64-6.63 0-11.55 7Q750 125.54 750 137v23.82zm57.35-48.36v-8.55h10v-17l9.26-6v23.05h15.16v8.55h-15.12v31.32q0 4.52 2 6.95a6.85 6.85 0 0 0 5.63 2.43 10.86 10.86 0 0 0 6.4-1.82l2.26 8.22a17.82 17.82 0 0 1-9.26 2.15q-7.65 0-12-4.85t-4.31-13.9v-30.55zm81.27 48.36V81.7h9.93v32.32h36.12V81.7h9.92v79.08h-9.92V123.5h-36.12v37.28h-9.93zM956 144v-40.13h9.26v37.61q0 11.63 9.84 11.63 6.68 0 11.44-7t4.86-18.42v-23.82h9.26v56.9h-9.26V150.3q-6.46 11.36-18.9 11.36-7.74 0-12.12-4.63T956 144m65.77 16.78v-80h9.23v29.83q1.38-2.54 6.57-5.24a21.52 21.52 0 0 1 10.11-2.48q12 0 18.66 8t6.62 21.42q0 13.45-6.62 21.4t-18.66 7.94a22.51 22.51 0 0 1-9.78-2.26 16.16 16.16 0 0 1-6.9-5.62v7zm13-43.51q-4.44 5.74-4.44 15.05t4.44 15.05a15.41 15.41 0 0 0 24 0q4.56-5.76 4.56-15t-4.56-15a15.41 15.41 0 0 0-24 0"/></g></svg>